<svg width="50" height="51" viewBox="0 0 50 51" fill="none" xmlns="http://www.w3.org/2000/svg">
<path d="M21.4374 8.37535L3.79153 37.8337C3.42771 38.4637 3.23521 39.1781 3.23317 39.9056C3.23113 40.6331 3.41963 41.3485 3.77992 41.9806C4.1402 42.6127 4.65971 43.1394 5.28675 43.5084C5.9138 43.8773 6.62653 44.0757 7.35403 44.0837H42.6457C43.3732 44.0757 44.0859 43.8773 44.713 43.5084C45.34 43.1394 45.8595 42.6127 46.2198 41.9806C46.5801 41.3485 46.7686 40.6331 46.7666 39.9056C46.7645 39.1781 46.572 38.4637 46.2082 37.8337L28.5624 8.37535C28.191 7.76307 27.668 7.25684 27.044 6.90552C26.42 6.5542 25.716 6.36963 24.9999 6.36963C24.2837 6.36963 23.5797 6.5542 22.9557 6.90552C22.3317 7.25684 21.8088 7.76307 21.4374 8.37535V8.37535Z" stroke="#A8AD1E" stroke-width="4" stroke-linecap="round" stroke-linejoin="round"/>
<path d="M25 19.0835V27.4168" stroke="#A8AD1E" stroke-width="4" stroke-linecap="round" stroke-linejoin="round"/>
<path d="M25 35.75H25.0208" stroke="#A8AD1E" stroke-width="4" stroke-linecap="round" stroke-linejoin="round"/>
</svg>
