<svg width="43" height="37" viewBox="0 0 43 37" fill="none" xmlns="http://www.w3.org/2000/svg">
<path d="M27.4097 7.88195C29.3194 7.88195 30.8819 6.31945 30.8819 4.40972C30.8819 2.5 29.3194 0.9375 27.4097 0.9375C25.5 0.9375 23.9375 2.5 23.9375 4.40972C23.9375 6.31945 25.5 7.88195 27.4097 7.88195ZM9.18056 19.1667C4.31944 19.1667 0.5 22.9861 0.5 27.8472C0.5 32.7083 4.31944 36.5278 9.18056 36.5278C14.0417 36.5278 17.8611 32.7083 17.8611 27.8472C17.8611 22.9861 14.0417 19.1667 9.18056 19.1667ZM9.18056 33.9236C5.88194 33.9236 3.10417 31.1458 3.10417 27.8472C3.10417 24.5486 5.88194 21.7708 9.18056 21.7708C12.4792 21.7708 15.2569 24.5486 15.2569 27.8472C15.2569 31.1458 12.4792 33.9236 9.18056 33.9236ZM19.25 16.5625L23.4167 12.3958L24.8056 13.7847C27.0625 16.0417 30.0139 17.4306 33.6597 17.4306V13.9583C31.0556 13.9583 28.9722 12.9167 27.4097 11.3542L24.1111 8.05556C23.2431 7.36111 22.375 7.01389 21.3333 7.01389C20.2917 7.01389 19.4236 7.36111 18.9028 8.05556L14.0417 12.9167C13.3472 13.6111 13 14.4792 13 15.3472C13 16.3889 13.3472 17.2569 14.0417 17.7778L19.5972 22.6389V31.3195H23.0694V20.5556L19.25 16.5625ZM33.4861 19.1667C28.625 19.1667 24.8056 22.9861 24.8056 27.8472C24.8056 32.7083 28.625 36.5278 33.4861 36.5278C38.3472 36.5278 42.1667 32.7083 42.1667 27.8472C42.1667 22.9861 38.3472 19.1667 33.4861 19.1667ZM33.4861 33.9236C30.1875 33.9236 27.4097 31.1458 27.4097 27.8472C27.4097 24.5486 30.1875 21.7708 33.4861 21.7708C36.7847 21.7708 39.5625 24.5486 39.5625 27.8472C39.5625 31.1458 36.7847 33.9236 33.4861 33.9236Z" fill="#A8AD1E"/>
</svg>
