<svg width="311" height="400" viewBox="0 0 311 400" fill="none" xmlns="http://www.w3.org/2000/svg">
<path d="M278.375 381.871C278.117 381.866 252.266 381.301 224.526 374.064C199.75 367.601 168.438 354.368 159.974 328.034C144.891 281.109 194.835 214.627 234.966 161.208C265.738 120.248 290.043 87.8951 288.243 65.3921C287.142 51.6271 275.969 38.4691 255.035 26.2831C239.466 17.2201 218.261 8.47005 192.009 0.27405C188.845 -0.71295 185.481 1.05005 184.493 4.21305C183.506 7.37605 185.269 10.7411 188.432 11.7281C262.926 34.9851 275.447 55.9321 276.28 66.3481C277.718 84.3201 252.291 118.167 225.371 154C181.401 212.529 131.565 278.867 148.549 331.705C167.641 391.104 273.645 393.783 278.148 393.868C278.187 393.868 278.225 393.869 278.263 393.869C281.524 393.869 284.198 391.257 284.26 387.982C284.324 384.67 281.688 381.933 278.375 381.871Z" fill="white"/>
<path d="M199.954 89.767C203.99 77.661 202.82 66 196.478 55.111C174.865 17.997 98.6551 2.62004 95.4211 1.98304C92.1711 1.34104 89.0151 3.46004 88.3751 6.71104C87.7351 9.96204 89.8521 13.117 93.1041 13.757C93.2911 13.794 111.992 17.518 132.979 25.417C160.059 35.609 178.432 47.965 186.11 61.15C190.704 69.039 191.509 77.159 188.571 85.973C184.434 98.383 157.225 121.402 128.418 145.772C96.4521 172.814 60.2221 203.464 34.1721 235.676C2.8151 274.451 -6.8279 307.3 4.6921 336.099C14.8821 361.576 31.0701 382.07 54.1781 398.752C55.2411 399.519 56.4681 399.888 57.6851 399.888C59.5461 399.888 61.3821 399.024 62.5551 397.399C64.4941 394.712 63.8891 390.962 61.2021 389.023C39.9941 373.712 25.1531 354.943 15.8331 331.642C-6.5549 275.672 75.9361 205.888 136.167 154.933C168.899 127.242 194.753 105.37 199.954 89.767Z" fill="white"/>
<path d="M46.4572 128.189C44.3742 130.767 44.7752 134.544 47.3522 136.627C49.9292 138.71 53.7062 138.309 55.7902 135.732L66.5422 122.428V150.701C66.5422 154.014 69.2282 156.701 72.5422 156.701C75.8562 156.701 78.5422 154.014 78.5422 150.701V122.428L89.2942 135.732C90.4802 137.199 92.2142 137.961 93.9642 137.961C95.2882 137.961 96.6212 137.525 97.7322 136.628C100.309 134.545 100.71 130.768 98.6272 128.19L78.5422 103.336V92.081L89.2942 105.386C90.4802 106.853 92.2142 107.615 93.9642 107.615C95.2882 107.615 96.6212 107.179 97.7322 106.282C100.309 104.199 100.71 100.422 98.6272 97.844L78.5422 72.99V61.734L89.2942 75.038C90.4802 76.505 92.2142 77.267 93.9642 77.267C95.2882 77.267 96.6212 76.83 97.7322 75.934C100.309 73.851 100.71 70.073 98.6272 67.496L77.2092 40.993C76.0702 39.583 74.3552 38.764 72.5422 38.764C70.7292 38.764 69.0152 39.583 67.8752 40.993L46.4572 67.496C44.3742 70.073 44.7752 73.851 47.3522 75.934C49.9292 78.016 53.7062 77.616 55.7902 75.038L66.5422 61.734V72.99L46.4572 97.843C44.3742 100.421 44.7752 104.198 47.3522 106.281C49.9292 108.364 53.7062 107.963 55.7902 105.386L66.5422 92.081V103.336L46.4572 128.189Z" fill="white"/>
<path d="M300.306 260.612C301.492 262.079 303.226 262.841 304.976 262.841C306.3 262.841 307.633 262.405 308.744 261.508C311.321 259.425 311.722 255.648 309.639 253.07L278.542 214.591V187.734L300.305 214.663C301.491 216.13 303.225 216.892 304.975 216.892C306.299 216.892 307.632 216.456 308.743 215.559C311.32 213.476 311.721 209.699 309.638 207.121L277.208 166.993C276.069 165.584 274.354 164.764 272.541 164.764C270.728 164.764 269.014 165.583 267.874 166.993L235.444 207.121C233.361 209.699 233.762 213.476 236.339 215.559C238.916 217.642 242.693 217.241 244.777 214.664L266.542 187.735V214.592L235.446 253.07C233.363 255.648 233.764 259.425 236.341 261.508C238.918 263.591 242.695 263.19 244.779 260.613L266.542 233.683V260.54L235.446 299.018C233.363 301.596 233.764 305.373 236.341 307.456C238.918 309.539 242.695 309.138 244.779 306.561L266.542 279.631V331.201C266.542 334.514 269.229 337.201 272.542 337.201C275.855 337.201 278.542 334.514 278.542 331.201V279.631L300.305 306.56C301.491 308.027 303.225 308.789 304.975 308.789C306.299 308.789 307.632 308.353 308.743 307.456C311.32 305.373 311.721 301.596 309.638 299.018L278.542 260.54V233.683L300.306 260.612Z" fill="white"/>
<path d="M145 47C64.9177 47 0 111.92 0 192C0 272.082 64.9177 337 145 337C225.082 337 290 272.082 290 192C290 111.92 225.082 47 145 47ZM31.7188 192C31.7188 166.511 40.1396 142.989 54.3484 124.06L212.94 282.652C194.012 296.86 170.49 305.282 145 305.282C82.4364 305.282 31.7188 254.564 31.7188 192V192ZM235.406 260.261L76.7392 101.594C95.7227 87.2372 119.366 78.7181 145 78.7181C207.564 78.7181 258.281 129.436 258.281 192C258.281 217.635 249.763 241.277 235.406 260.261V260.261Z" fill="#E5554E"/>
</svg>
