<svg width="57" height="51" viewBox="0 0 57 51" fill="none" xmlns="http://www.w3.org/2000/svg">
<g clip-path="url(#clip0)">
<path d="M55.3562 3.79175C55.1648 3.79175 54.9675 3.82788 54.7742 3.90503L38.1677 10.0417H38.1667L21.3699 4.11206C20.7324 3.90017 20.0651 3.79203 19.3933 3.79175C18.74 3.79175 18.0876 3.89429 17.4587 4.09839L2.63159 9.25562C2.05169 9.48756 1.55457 9.88792 1.20436 10.4051C0.854139 10.9222 0.666887 11.5324 0.666748 12.157L0.666748 45.9773C0.666748 46.8748 1.4021 47.5418 2.22827 47.5418C2.41968 47.5418 2.61597 47.5056 2.8103 47.4285L19.4167 41.2918L36.2136 47.2205C37.4822 47.6438 38.8531 47.6489 40.1248 47.2351L54.9519 42.0779C55.5319 41.8461 56.0291 41.4457 56.3793 40.9285C56.7295 40.4114 56.9167 39.8011 56.9167 39.1765V5.3562C56.9167 4.45874 56.1814 3.79175 55.3562 3.79175ZM22.5417 9.49683L35.0417 13.9099V41.8367L22.5417 37.4236V9.49683ZM5.35425 41.4919V13.2712L17.8542 8.92261V36.8718L17.7917 36.8943L5.35425 41.4919ZM52.2292 38.0613L39.7292 42.4099V14.4617L39.7917 14.4382L52.2292 9.84155V38.0613Z" fill="#A8AD1E"/>
</g>
<defs>
<clipPath id="clip0">
<rect width="56.25" height="50" fill="white" transform="translate(0.666748 0.666748)"/>
</clipPath>
</defs>
</svg>
