<svg width="55" height="68" viewBox="0 0 55 68" fill="none" xmlns="http://www.w3.org/2000/svg">
<path d="M43.1 17.9C40.9 14.3 34.9 10.8 28 10.8C19.1 10.8 14.8 14.5 14.8 19.3C14.8 24.8 21.3 26.4 29 27.3C42.3 28.9 54.6 32.4 54.6 47.6C54.6 61.8 42.0999 67.9 27.8999 67.9C14.8999 67.9 4.89995 63.9 0.199951 52.3L10.2 47.1C13 54.1 20.4 57.2 28.1 57.2C35.6 57.2 42.7 54.6 42.7 47.7C42.7 41.7 36.4 39.2 28 38.3C15 36.8 2.99995 33.3 2.99995 19C2.99995 5.9 15.9 0.6 27.6 0.5C37.5 0.5 47.8 3.3 52.6 13.1L43.1 17.9Z" fill="#76B41D"/>
</svg>
