<svg width="269" height="135" viewBox="0 0 269 135" fill="none" xmlns="http://www.w3.org/2000/svg">
<path d="M241.4 54.6999L240.6 53.4999C236.4 47.3999 229.6 49.7999 229.5 49.8999L228.9 50.0999L225.6 48.2999C224 49.2999 222.6 49.4999 221.4 48.9999C220.2 48.4999 219.6 47.3999 219.4 46.7999C216.9 42.5999 216.2 42.4999 213.9 42.4999H213.8C209.5 42.2999 207.6 30.5999 207.1 26.9999C206.8 25.0999 206.3 23.7999 205.8 22.9999L199.5 30.0999L198.9 27.0999C198.9 26.9999 196.9 17.6999 191.6 17.6999C185.8 17.6999 175.7 20.7999 165.8 32.8999C155.9 44.9999 149.8 48.2999 149.6 48.3999L149 46.8999C149 46.8999 154.1 44.4999 163.4 33.0999C172.6 21.7999 183.7 14.3999 191.6 14.3999C197.1 14.3999 199.9 19.9999 201.1 23.4999L205.7 18.3999L206.8 19.1999C207.1 19.3999 209.5 21.3999 210.2 26.3999C211.2 33.4999 213.1 38.5999 214.1 39.0999C217.4 39.1999 219 39.7999 222.2 45.0999L222.3 45.2999L222.4 45.5999C222.4 45.5999 222.5 45.7999 222.6 45.8999C222.7 45.8999 223.3 46.0999 224.8 44.9999L225.6 44.4999L229.3 46.5999C232.4 45.6999 238.2 45.5999 242.3 50.3999L247.9 46.7999L258.6 53.9999H257.6L248.2 50.3999L241.4 54.6999Z" fill="white"/>
<path d="M74.3 92.7C74.1 109.1 64 125.6 41.7 125.6C19.4 125.6 9 109.6 9 92.8001C9 76.0001 19.7 59.3 41.7 59.3C63.6 59.3 74.5 76.1 74.3 92.7ZM20.8 93C21.1 103.5 26.7 114.6 41.7 114.6C56.7 114.6 62.3 103.3 62.5 92.9001C62.7 82.2001 56.7 70.2 41.7 70.2C26.7 70.2 20.6 82.3 20.8 93Z" fill="#76B41D"/>
<path d="M107.2 76.3999C105 72.7999 99 69.2999 92.1 69.2999C83.2 69.2999 78.9 72.9999 78.9 77.7999C78.9 83.2999 85.4 84.8999 93.1 85.7999C106.4 87.3999 118.7 90.8999 118.7 106.1C118.7 120.3 106.2 126.4 92 126.4C79 126.4 69 122.4 64.3 110.8L74.3 105.6C77.1 112.6 84.5 115.7 92.2 115.7C99.7 115.7 106.8 113.1 106.8 106.2C106.8 100.2 100.5 97.6999 92.1 96.7999C79.1 95.2999 67.1 91.7999 67.1 77.4999C67.1 64.2999 80 58.9999 91.8 58.8999C101.7 58.8999 112 61.6999 116.8 71.4999L107.2 76.3999Z" fill="#76B41D"/>
<path d="M149.1 75.9C146.9 72.3 140.9 68.8 134 68.8C125.1 68.8 120.8 72.5 120.8 77.3C120.8 82.8 127.3 84.4 135 85.3C148.3 86.9 160.6 90.4 160.6 105.6C160.6 119.8 148.1 125.9 133.9 125.9C120.9 125.9 110.9 121.9 106.2 110.3L116.2 105.1C119 112.1 126.4 115.2 134.1 115.2C141.6 115.2 148.7 112.6 148.7 105.7C148.7 99.7 142.4 97.2 134 96.3C121 94.8 109 91.3 109 77C109 63.9 121.9 58.6 133.6 58.5C143.5 58.5 153.8 61.3 158.6 71.1L149.1 75.9Z" fill="#76B41D"/>
<path d="M197.6 112.2H164.3L158.8 124.2H145.8L174.3 60.6001H187.4L215.9 124.2H202.8L197.6 112.2ZM180.9 73.9001L169.1 101H192.7L180.9 73.9001Z" fill="#76B41D"/>
<path d="M258.4 60.7V97.0999C258.4 115.9 246.9 125.5 230.9 125.5C215.6 125.5 202.6 116.2 202.6 97.0999V60.7H214.5V97.0999C214.5 108.5 221 114.6 230.9 114.6C240.8 114.6 246.4 108 246.4 97.0999V60.7H258.4Z" fill="#76B41D"/>
<path d="M52 54.7999H42.9L31.1 41.2999H23.7999V54.7999H16.2V14.3999C22.6 14.3999 29 14.4999 35.4 14.4999C44.9 14.5999 49.9 20.8999 49.9 27.8999C49.9 33.3999 47.4 38.9999 39.7 40.5999L52 54.2999V54.7999ZM23.7999 21.5999V34.4999H35.4C40.2 34.4999 42.2999 31.2999 42.2999 27.9999C42.2999 24.7999 40.2 21.4999 35.4 21.4999H23.7999V21.5999Z" fill="#1A84AB"/>
<path d="M76.6 47.1999H55.5L52 54.7999H43.8L61.9001 14.3999H70.2L88.3001 54.7999H80L76.6 47.1999ZM66 22.8999L58.5 40.0999H73.5L66 22.8999Z" fill="#1A84AB"/>
<path d="M106.5 14.3999H114.1V54.7999H109.4V54.8999L88.2001 27.5999V54.7999H80.6001V14.4999H86.8001L106.6 39.4999V14.3999H106.5Z" fill="#1A84AB"/>
<path d="M111.1 47.4999H118.6H126.9C136.1 47.4999 139.7 40.7999 139.5 34.1999C139.3 27.8999 135.6 21.5999 126.9 21.5999H118.6H111.1V14.3999C116.1 14.3999 122 14.3999 127 14.3999C140.8 14.3999 147 24.2999 147.2 34.1999C147.4 44.3999 141.1 54.6999 127 54.6999C122 54.6999 116.1 54.6999 111.1 54.6999" fill="#1A84AB"/>
<path d="M149.9 14.5H157.2L152.7 27.5H147.2L149.9 14.5Z" fill="#1A84AB"/>
</svg>
