<svg width="110" height="41" viewBox="0 0 110 41" fill="none" xmlns="http://www.w3.org/2000/svg">
<path d="M92.4 40.6999L91.6 39.4999C87.4 33.3999 80.6 35.7999 80.5 35.8999L79.9 36.0999L76.6 34.2999C75 35.2999 73.6 35.4999 72.4 34.9999C71.2 34.4999 70.6 33.3999 70.4 32.7999C67.9 28.5999 67.2 28.4999 64.9 28.4999H64.8C60.5 28.2999 58.6 16.5999 58.1 12.9999C57.8 11.0999 57.3 9.7999 56.8 8.9999L50.5 16.0999L49.9 13.0999C49.9 12.9999 47.9 3.6999 42.6 3.6999C36.8 3.6999 26.7 6.7999 16.8 18.8999C6.9 30.9999 0.800006 34.2999 0.600006 34.3999L0 32.8999C0 32.8999 5.09999 30.4999 14.4 19.0999C23.6 7.7999 34.7 0.399902 42.6 0.399902C48.1 0.399902 50.9 5.9999 52.1 9.4999L56.7 4.3999L57.8 5.1999C58.1 5.3999 60.5 7.3999 61.2 12.3999C62.2 19.4999 64.1 24.5999 65.1 25.0999C68.4 25.1999 70 25.7999 73.2 31.0999L73.3 31.2999L73.4 31.5999C73.4 31.5999 73.5 31.7999 73.6 31.8999C73.7 31.8999 74.3 32.0999 75.8 30.9999L76.6 30.4999L80.3 32.5999C83.4 31.6999 89.2 31.5999 93.3 36.3999L98.9 32.7999L109.6 39.9999H108.6L99.2 36.3999L92.4 40.6999Z" fill="white"/>
</svg>
