<svg width="45" height="45" viewBox="0 0 45 45" fill="none" xmlns="http://www.w3.org/2000/svg">
<path d="M9.375 20.625H3.75L22.5 3.75L41.25 20.625H35.625V29.85C33.6562 29.5312 31.7437 28.725 30 27.5063C28.8188 28.3312 27.5625 28.9312 26.25 29.3438V24.375H18.75V29.3438C17.4375 28.9312 16.1812 28.3312 15 27.5063C13.2563 28.725 11.3438 29.5312 9.375 29.85V20.625ZM37.5 33.75C34.8937 33.75 32.2875 32.8687 30 31.2563C25.425 34.4625 19.575 34.4625 15 31.2563C12.7125 32.8687 10.1062 33.75 7.5 33.75H3.75V41.25H41.25V33.75" fill="white"/>
</svg>
