<svg width="57" height="56" viewBox="0 0 57 56" fill="none" xmlns="http://www.w3.org/2000/svg">
<path d="M10.7971 31.7098C11.9637 32.3632 12.2904 33.8332 11.6604 34.9065C11.0071 36.0265 9.6304 36.3998 8.46373 35.7698C6.68702 34.7495 5.21167 33.2776 4.18723 31.5033C3.16279 29.729 2.6257 27.7153 2.6304 25.6665C2.6304 22.5723 3.85956 19.6048 6.04749 17.4169C8.23541 15.229 11.2029 13.9998 14.2971 13.9998C16.6304 8.5165 21.9971 4.6665 28.2971 4.6665C36.3004 4.6665 42.8571 10.8732 43.4637 18.7365L44.6304 18.6665C47.1058 18.6665 49.4797 19.6498 51.2301 21.4002C52.9804 23.1505 53.9637 25.5245 53.9637 27.9998C53.9637 30.4752 52.9804 32.8492 51.2301 34.5995C49.4797 36.3498 47.1058 37.3332 44.6304 37.3332C44.0116 37.3332 43.4181 37.0873 42.9805 36.6498C42.5429 36.2122 42.2971 35.6187 42.2971 34.9998C42.2971 34.381 42.5429 33.7875 42.9805 33.3499C43.4181 32.9123 44.0116 32.6665 44.6304 32.6665C45.8681 32.6665 47.0551 32.1748 47.9302 31.2997C48.8054 30.4245 49.2971 29.2375 49.2971 27.9998C49.2971 26.7622 48.8054 25.5752 47.9302 24.7C47.0551 23.8248 45.8681 23.3332 44.6304 23.3332H39.9637V20.9998C39.9637 17.9056 38.7346 14.9382 36.5466 12.7503C34.3587 10.5623 31.3913 9.33317 28.2971 9.33317C22.4637 9.33317 17.6804 13.5798 16.7704 19.1098C16.0004 18.8298 15.1604 18.6665 14.2971 18.6665C12.4406 18.6665 10.6601 19.404 9.34732 20.7168C8.03457 22.0295 7.29707 23.81 7.29707 25.6665C7.29707 28.2565 8.69707 30.5198 10.7971 31.7332V31.7098ZM22.4637 25.6665H29.4637L24.7971 34.9998H29.4637L20.7137 51.3332L22.4637 39.6665H16.6304L22.4637 25.6665ZM41.1304 43.5632C41.1304 46.5732 38.7971 48.9998 35.8804 48.9998C32.9637 48.9998 30.6304 46.5732 30.6304 43.5632C30.6304 39.9465 35.8804 33.8332 35.8804 33.8332C35.8804 33.8332 41.1304 39.9465 41.1304 43.5632Z" fill="white"/>
</svg>
