<svg width="46" height="46" viewBox="0 0 46 46" fill="none" xmlns="http://www.w3.org/2000/svg">
<g clip-path="url(#clip0)">
<path d="M0 25.4273C0 25.8053 0.132692 26.1267 0.398077 26.3913C0.663462 26.6559 0.980449 26.7882 1.34904 26.7882H8.38173C8.72083 26.7882 9.01571 26.6824 9.26635 26.4707C9.51699 26.259 9.67179 25.9868 9.73077 25.6541L11.8538 12.9066L15.6798 44.7981C15.7388 45.1459 15.8899 45.4332 16.1332 45.66C16.3764 45.8869 16.6603 46.0003 16.9846 46.0003C17.3385 46.0003 17.6407 45.8869 17.8913 45.66C18.142 45.4332 18.2968 45.1459 18.3558 44.7981L21.2971 21.3898L23.7519 28.1719C23.8404 28.444 23.9989 28.6633 24.2274 28.8297C24.4559 28.996 24.7103 29.0792 24.9904 29.0792H25.101C25.3811 29.064 25.6354 28.9582 25.8639 28.7616C26.0925 28.565 26.2436 28.3155 26.3173 28.0131L29.9221 11.4095L31.6029 43.3011C31.6176 43.6488 31.7356 43.9475 31.9567 44.197C32.1779 44.4465 32.458 44.5864 32.7971 44.6166C33.1362 44.6469 33.4385 44.5637 33.7038 44.3671C33.9692 44.1705 34.1388 43.9059 34.2125 43.5732L38.1048 26.7882H44.651C45.0196 26.7882 45.3365 26.6559 45.6019 26.3913C45.8673 26.1267 46 25.8053 46 25.4273C46 25.0492 45.8673 24.7241 45.6019 24.4519C45.3365 24.1797 45.0196 24.0437 44.651 24.0437H37.0433C36.7337 24.0437 36.4572 24.1419 36.2139 24.3385C35.9707 24.5351 35.8122 24.7846 35.7385 25.087L33.7702 33.661L32.0673 1.31584C32.0526 0.968045 31.9272 0.669393 31.6913 0.419886C31.4555 0.170379 31.1753 0.038065 30.851 0.0229434C30.5119 -0.00729989 30.2059 0.0796495 29.9332 0.283792C29.6604 0.487934 29.4872 0.763903 29.4135 1.1117L24.7029 22.8188L21.9606 15.1748C21.8574 14.8875 21.6694 14.6607 21.3966 14.4943C21.1239 14.328 20.8401 14.26 20.5452 14.2902C20.2356 14.3204 19.9739 14.449 19.7601 14.6758C19.5463 14.9026 19.4099 15.1748 19.351 15.4924L17.0288 33.661L13.424 3.28922C13.3651 2.94142 13.2176 2.65789 12.9817 2.43862C12.7458 2.21936 12.4657 2.10217 12.1413 2.08705C11.8022 2.07192 11.5037 2.17022 11.2457 2.38192C10.9877 2.59362 10.8292 2.87337 10.7702 3.22117L7.27596 24.0437H1.34904C0.980449 24.0437 0.663462 24.1797 0.398077 24.4519C0.132692 24.7241 0 25.0492 0 25.4273Z" fill="white"/>
</g>
<defs>
<clipPath id="clip0">
<rect width="46" height="46" fill="white"/>
</clipPath>
</defs>
</svg>
