<svg width="26" height="24" viewBox="0 0 26 24" fill="none" xmlns="http://www.w3.org/2000/svg">
<path d="M13.069 8C14.1928 8 15.2706 8.42143 16.0653 9.17157C16.86 9.92172 17.3064 10.9391 17.3064 12C17.3064 13.0609 16.86 14.0783 16.0653 14.8284C15.2706 15.5786 14.1928 16 13.069 16C11.9451 16 10.8673 15.5786 10.0727 14.8284C9.27798 14.0783 8.83154 13.0609 8.83154 12C8.83154 10.9391 9.27798 9.92172 10.0727 9.17157C10.8673 8.42143 11.9451 8 13.069 8ZM3.58771 13H1.41602V11H3.58771C4.06442 6.83 7.59209 3.5 12.0096 3.05V1H14.1283V3.05C18.5459 3.5 22.0736 6.83 22.5503 11H24.722V13H22.5503C22.0736 17.17 18.5459 20.5 14.1283 20.95V23H12.0096V20.95C7.59209 20.5 4.06442 17.17 3.58771 13ZM13.069 5C11.1023 5 9.2161 5.7375 7.82542 7.05025C6.43473 8.36301 5.65346 10.1435 5.65346 12C5.65346 13.8565 6.43473 15.637 7.82542 16.9497C9.2161 18.2625 11.1023 19 13.069 19C15.0357 19 16.9219 18.2625 18.3126 16.9497C19.7032 15.637 20.4845 13.8565 20.4845 12C20.4845 10.1435 19.7032 8.36301 18.3126 7.05025C16.9219 5.7375 15.0357 5 13.069 5Z" fill="#3D3D3D"/>
</svg>
