<svg width="42" height="42" viewBox="0 0 42 42" fill="none" xmlns="http://www.w3.org/2000/svg">
<path d="M38.5 29.6102V34.8602C38.502 35.3475 38.4021 35.83 38.2069 36.2765C38.0116 36.7231 37.7253 37.1239 37.3661 37.4534C37.007 37.7829 36.583 38.0338 36.1213 38.1899C35.6596 38.346 35.1704 38.404 34.685 38.3602C29.3 37.775 24.1273 35.9349 19.5825 32.9877C15.3542 30.3008 11.7693 26.716 9.08251 22.4877C6.12497 17.9223 4.28443 12.7244 3.71001 7.31517C3.66627 6.83124 3.72379 6.3435 3.87888 5.88301C4.03398 5.42252 4.28325 4.99938 4.61085 4.64051C4.93844 4.28164 5.33716 3.99491 5.78164 3.79858C6.22611 3.60226 6.7066 3.50063 7.19251 3.50017H12.4425C13.2918 3.49181 14.1151 3.79256 14.7591 4.34635C15.403 4.90015 15.8236 5.6692 15.9425 6.51017C16.1641 8.19029 16.575 9.83994 17.1675 11.4277C17.403 12.054 17.4539 12.7348 17.3143 13.3892C17.1748 14.0436 16.8505 14.6444 16.38 15.1202L14.1575 17.3427C16.6487 21.7239 20.2763 25.3514 24.6575 27.8427L26.88 25.6202C27.3558 25.1497 27.9565 24.8254 28.611 24.6858C29.2654 24.5463 29.9461 24.5972 30.5725 24.8327C32.1602 25.4251 33.8099 25.8361 35.49 26.0577C36.3401 26.1776 37.1165 26.6058 37.6714 27.2608C38.2264 27.9158 38.5213 28.7519 38.5 29.6102Z" stroke="black" stroke-width="2" stroke-linecap="round" stroke-linejoin="round"/>
</svg>
