<svg width="24" height="34" viewBox="0 0 24 34" fill="none" xmlns="http://www.w3.org/2000/svg">
<g clip-path="url(#clip0)">
<path d="M12.8205 0.333252C11.9391 0.333252 11.1846 0.647087 10.5569 1.27476C9.92922 1.90243 9.61539 2.65697 9.61539 3.53838C9.61539 4.41979 9.92922 5.17433 10.5569 5.802C11.1846 6.42967 11.9391 6.74351 12.8205 6.74351C13.7019 6.74351 14.4565 6.42967 15.0841 5.802C15.7118 5.17433 16.0256 4.41979 16.0256 3.53838C16.0256 2.65697 15.7118 1.90243 15.0841 1.27476C14.4565 0.647087 13.7019 0.333252 12.8205 0.333252ZM5.50881 32.705L8.89423 27.1562C9.26816 26.5419 9.54861 25.9275 9.73558 25.3132L10.8974 21.4671L14.403 25.1329L17.468 32.4847C17.6149 32.8453 17.8452 33.1324 18.1591 33.3461C18.4729 33.5597 18.8301 33.6666 19.2308 33.6666C19.765 33.6666 20.219 33.4796 20.593 33.1057C20.9669 32.7318 21.1538 32.2777 21.1538 31.7435C21.1538 31.5165 21.1071 31.2761 21.0136 31.0224L18.2091 24.1113C18.0355 23.6706 17.8986 23.3734 17.7985 23.2199C17.6983 23.0663 17.4746 22.8025 17.1274 22.4286L13.1811 18.1818L14.383 12.5328L15.5048 14.7163C15.7185 15.1703 16.0123 15.4975 16.3862 15.6978C16.4663 15.7379 17.8486 16.439 20.5329 17.8012C21.1739 18.1217 21.5946 18.282 21.7949 18.282C22.1688 18.282 22.476 18.1618 22.7163 17.9214C22.9567 17.681 23.0769 17.3738 23.0769 16.9999C23.0769 16.4524 22.8232 16.0451 22.3157 15.778L17.7284 13.3341L15.9255 9.20745C15.5916 8.47294 15.1509 8.0723 14.6034 8.00553L10.016 7.48469C9.58868 7.44463 9.01442 7.5715 8.29327 7.8653L3.44551 9.78838C3.17842 9.89522 2.918 10.0755 2.66426 10.3292C2.41052 10.583 2.24359 10.8434 2.16346 11.1105C1.10844 13.8349 0.413996 15.6511 0.0801282 16.5592C0.0267094 16.6794 0 16.8263 0 16.9999C0 17.3471 0.12687 17.6476 0.380609 17.9014C0.634348 18.1551 0.934829 18.282 1.28205 18.282C1.54915 18.282 1.81958 18.2185 2.09335 18.0917C2.36712 17.9648 2.54407 17.8012 2.6242 17.6009L4.66747 12.2323L8.8742 10.6498L5.92949 24.4118L2.16346 30.822C2.00321 31.1292 1.92308 31.4363 1.92308 31.7435C1.92308 32.2777 2.11004 32.7318 2.48397 33.1057C2.85791 33.4796 3.31197 33.6666 3.84615 33.6666C4.56731 33.6666 5.12153 33.3461 5.50881 32.705Z" fill="#A8AD1E"/>
</g>
<defs>
<clipPath id="clip0">
<rect width="23.0769" height="33.3333" fill="white" transform="translate(0 0.333252)"/>
</clipPath>
</defs>
</svg>
